<svg xmlns="http://www.w3.org/2000/svg" viewBox="0 0 512 512" role="img" aria-label="Arkansans for Pension Integrity badge">
  <style>@media (prefers-color-scheme: dark){.ks{fill:#1E7B47;stroke:#E6F9E4}}</style>
  <path class="ks" d="M105.04,432.72 Q98.04,432.77 98.03,425.77 L98.00,385.39 Q98.00,378.39 91.19,376.78 L67.85,371.26 Q61.03,369.65 61.21,362.65 L65.42,197.45 Q65.60,190.45 64.64,183.51 L50.96,84.63 Q50.00,77.69 57.00,77.70 L416.10,77.84 Q423.10,77.84 425.54,84.41 L428.06,91.17 Q430.50,97.73 426.08,103.16 L409.45,123.64 Q405.03,129.08 412.03,129.01 L451.14,128.65 Q458.14,128.59 459.20,135.51 L459.77,139.25 Q460.82,146.17 454.45,149.07 L445.87,152.96 Q439.50,155.85 440.83,162.72 L442.04,168.92 Q443.38,175.79 437.62,179.78 L426.62,187.39 Q420.86,191.38 423.33,197.93 L427.91,210.08 Q430.38,216.63 425.21,221.35 L396.11,247.97 Q390.94,252.70 390.36,259.67 L388.36,283.37 Q387.77,290.35 382.95,295.42 L349.67,330.42 Q344.84,335.49 342.96,342.24 L334.76,371.59 Q332.88,378.33 334.05,385.23 L340.62,423.93 Q341.79,430.83 334.79,430.88 Z" fill="#013237" stroke="#013237" stroke-width="14" stroke-linejoin="round"/>
  <path d="M173.46,272.86L173.46,261.28Q172.68,263.08 169.55,266.37Q166.41,269.66 161.19,272.30Q155.98,274.94 148.96,274.94Q138.61,274.94 130.78,269.87Q122.95,264.80 118.61,256.25Q114.26,247.70 114.26,237.24Q114.26,226.79 118.61,218.23Q122.95,209.68 130.78,204.57Q138.61,199.45 148.96,199.45Q155.73,199.45 160.73,201.60Q165.74,203.74 168.90,206.64Q172.06,209.54 173.21,211.94L173.21,201.54L199.44,201.54L199.44,272.86ZM140.17,237.24Q140.17,242.14 142.42,246.00Q144.68,249.86 148.45,252.04Q152.22,254.22 156.78,254.22Q161.56,254.22 165.23,252.02Q168.90,249.81 171.01,245.95Q173.11,242.09 173.11,237.24Q173.11,232.39 171.01,228.53Q168.90,224.67 165.23,222.42Q161.56,220.18 156.78,220.18Q152.22,220.18 148.45,222.40Q144.68,224.62 142.42,228.48Q140.17,232.35 140.17,237.24Z M244.79,308.99L218.67,308.99L218.67,201.54L245.05,201.54L245.05,211.94Q246.28,209.49 249.70,206.59Q253.12,203.69 258.48,201.57Q263.83,199.45 270.63,199.45Q281.00,199.45 288.45,204.57Q295.90,209.68 299.91,218.23Q303.92,226.79 303.92,237.24Q303.92,247.70 299.66,256.25Q295.40,264.80 287.69,269.87Q279.99,274.94 269.61,274.94Q262.13,274.94 256.84,272.31Q251.55,269.68 248.56,266.41Q245.58,263.13 244.79,261.28ZM278.06,237.24Q278.06,232.35 275.88,228.48Q273.70,224.62 270.01,222.40Q266.32,220.18 261.76,220.18Q256.98,220.18 253.20,222.42Q249.42,224.67 247.23,228.53Q245.05,232.39 245.05,237.24Q245.05,242.09 247.23,245.95Q249.42,249.81 253.20,252.02Q256.98,254.22 261.76,254.22Q266.32,254.22 270.01,252.04Q273.70,249.86 275.88,246.00Q278.06,242.14 278.06,237.24Z M320.69,272.86L320.69,201.54L347.04,201.54L347.04,272.86ZM334.17,186.88Q327.97,186.88 323.64,182.48Q319.30,178.09 319.30,172.01Q319.30,165.92 323.65,161.45Q328.00,156.99 334.17,156.99Q338.26,156.99 341.66,159.04Q345.06,161.08 347.15,164.46Q349.24,167.83 349.24,172.01Q349.24,178.09 344.82,182.48Q340.40,186.88 334.17,186.88Z" fill="#E6F9E4"/>
</svg>
